<?xml version="1.0" encoding="UTF-8"?>
<!DOCTYPE svg PUBLIC "-//W3C//DTD SVG 1.1//EN" "http://www.w3.org/Graphics/SVG/1.1/DTD/svg11.dtd">
<!-- Creator: CorelDRAW -->
<svg xmlns="http://www.w3.org/2000/svg" xml:space="preserve" width="14.5865mm" height="13.2899mm" version="1.1" style="shape-rendering:geometricPrecision; text-rendering:geometricPrecision; image-rendering:optimizeQuality; fill-rule:evenodd; clip-rule:evenodd"
viewBox="0 0 45.91 41.83"
 xmlns:xlink="http://www.w3.org/1999/xlink"
 xmlns:xodm="http://www.corel.com/coreldraw/odm/2003">
 <defs>
  <style type="text/css">
   <![CDATA[
    .fil1 {fill:#EF7F1A}
    .fil0 {fill:#737686}
   ]]>
  </style>
 </defs>
 <g id="Слой_x0020_1">
  <metadata id="CorelCorpID_0Corel-Layer"/>
  <g id="_2544217633152">
   <path class="fil0" d="M18.16 21.22c-0.49,-0.13 -6.22,-4.29 -7.02,-4.82 -3.06,-2.02 -2.09,-2.34 -5.45,1.02 -1.44,1.44 -0.88,1.42 1.61,4.86l4.18 5.92c1.94,2.81 3.91,5.58 5.66,8.52 0.71,1.19 1.54,1.3 2.29,0.05 0.28,-0.47 0.48,-0.84 0.75,-1.29 0.52,-0.85 0.96,-1.63 1.49,-2.49 0.53,-0.86 1,-1.58 1.53,-2.45l6.38 -9.63c1.5,-2.26 3.46,-4.77 5.09,-6.95l4.48 -5.52c0.19,-0.22 0.3,-0.28 0.49,-0.53 0.87,-1.12 3.39,-3.65 4.35,-4.63 0.75,-0.75 1.91,-1.41 1.91,-2.27 0,-0.76 -0.66,-1.02 -1.43,-1.02l-3.78 0c-0.72,0 -1.3,0.53 -1.8,0.86l-4.7 3.56c-3.46,2.92 -5.35,4.83 -8.42,7.9 -1.34,1.33 -2.68,2.99 -3.93,4.34l-3.7 4.57z"/>
   <path class="fil1" d="M-0 23.57c0,4.1 1.12,7.29 3.14,10.33 0.33,0.5 0.59,0.83 0.95,1.29 0.74,0.93 1.84,1.98 2.77,2.74 2.7,2.19 6.81,3.91 10.48,3.91 4.66,0 7.68,-0.85 11.26,-3.33l2.43 -2.06c2.22,-2.22 3.94,-5.41 4.69,-8.47 0.52,-2.15 0.65,-4.79 0.27,-7.05 -0.16,-0.93 -0.2,-1.65 -1.21,-1.65 -1.63,0 -0.61,2.36 -0.61,4.49 0,8.6 -7.04,16.02 -16.12,16.02 -11.65,0 -19.24,-12.16 -14.66,-22.41 0.66,-1.48 0.54,-1.18 1.36,-2.52 2.36,-3.85 7.87,-7.11 12.38,-7.11 2.19,0 2.98,-0.08 5.2,0.51 0.36,0.1 1.09,0.39 1.4,0.36 0.93,-0.09 1.61,-1.57 -0.06,-2.11 -9.09,-2.94 -18.31,1.68 -22.02,9.64 -0.89,1.92 -1.67,4.66 -1.67,7.41z"/>
  </g>
 </g>
</svg>
