<?xml version="1.0" encoding="UTF-8"?>
<!DOCTYPE svg PUBLIC "-//W3C//DTD SVG 1.1//EN" "http://www.w3.org/Graphics/SVG/1.1/DTD/svg11.dtd">
<!-- Creator: CorelDRAW -->
<svg xmlns="http://www.w3.org/2000/svg" xml:space="preserve" width="13.0271mm" height="11.9671mm" version="1.1" style="shape-rendering:geometricPrecision; text-rendering:geometricPrecision; image-rendering:optimizeQuality; fill-rule:evenodd; clip-rule:evenodd"
viewBox="0 0 36.87 33.87"
 xmlns:xlink="http://www.w3.org/1999/xlink"
 xmlns:xodm="http://www.corel.com/coreldraw/odm/2003">
 <defs>
  <style type="text/css">
   <![CDATA[
    .fil0 {fill:#737686}
   ]]>
  </style>
 </defs>
 <g id="Слой_x0020_1">
  <metadata id="CorelCorpID_0Corel-Layer"/>
  <path class="fil0" d="M11.92 19.08c-0.44,-0.12 -5.59,-3.85 -6.31,-4.33 -2.75,-1.82 -1.88,-2.11 -4.9,0.91 -1.29,1.29 -0.79,1.27 1.45,4.37l3.76 5.32c1.75,2.53 3.52,5.02 5.09,7.66 0.63,1.07 1.39,1.17 2.06,0.04 0.25,-0.42 0.43,-0.75 0.68,-1.16 0.46,-0.77 0.86,-1.46 1.34,-2.24 0.48,-0.77 0.9,-1.42 1.38,-2.2l5.74 -8.66c1.35,-2.03 3.11,-4.29 4.57,-6.25l4.03 -4.96c0.17,-0.2 0.27,-0.25 0.44,-0.48 0.78,-1.01 3.05,-3.28 3.91,-4.16 0.67,-0.68 1.72,-1.27 1.72,-2.04 0,-0.68 -0.59,-0.92 -1.28,-0.92l-3.39 0c-0.65,0 -1.17,0.47 -1.61,0.77l-4.23 3.2c-3.11,2.63 -4.81,4.35 -7.57,7.1 -1.2,1.2 -2.41,2.69 -3.53,3.9l-3.33 4.11z"/>
 </g>
</svg>
