<?xml version="1.0" encoding="UTF-8"?>
<!DOCTYPE svg PUBLIC "-//W3C//DTD SVG 1.1//EN" "http://www.w3.org/Graphics/SVG/1.1/DTD/svg11.dtd">
<!-- Creator: CorelDRAW -->
<svg xmlns="http://www.w3.org/2000/svg" xml:space="preserve" width="19.9065mm" height="18.2867mm" version="1.1" style="shape-rendering:geometricPrecision; text-rendering:geometricPrecision; image-rendering:optimizeQuality; fill-rule:evenodd; clip-rule:evenodd"
viewBox="0 0 67.66 62.16"
 xmlns:xlink="http://www.w3.org/1999/xlink"
 xmlns:xodm="http://www.corel.com/coreldraw/odm/2003">
 <defs>
  <style type="text/css">
   <![CDATA[
    .fil0 {fill:#EF7F1A}
   ]]>
  </style>
 </defs>
 <g id="Слой_x0020_1">
  <metadata id="CorelCorpID_0Corel-Layer"/>
  <path class="fil0" d="M21.87 35.02c-0.81,-0.22 -10.27,-7.08 -11.58,-7.95 -5.04,-3.34 -3.45,-3.87 -9,1.68 -2.37,2.37 -1.45,2.34 2.66,8.03l6.91 9.76c3.21,4.64 6.46,9.21 9.34,14.07 1.16,1.96 2.55,2.15 3.77,0.08 0.46,-0.77 0.79,-1.38 1.24,-2.13 0.85,-1.41 1.58,-2.68 2.46,-4.11 0.87,-1.42 1.65,-2.61 2.53,-4.04l10.54 -15.9c2.47,-3.73 5.7,-7.87 8.39,-11.47l7.39 -9.11c0.32,-0.36 0.49,-0.46 0.81,-0.87 1.43,-1.85 5.59,-6.03 7.18,-7.63 1.23,-1.24 3.16,-2.33 3.16,-3.75 0,-1.25 -1.08,-1.68 -2.36,-1.68l-6.23 0c-1.19,0 -2.14,0.87 -2.96,1.41l-7.76 5.88c-5.7,4.82 -8.83,7.98 -13.9,13.04 -2.2,2.2 -4.42,4.94 -6.48,7.16l-6.1 7.53z"/>
 </g>
</svg>
