<?xml version="1.0" encoding="UTF-8"?>
<!DOCTYPE svg PUBLIC "-//W3C//DTD SVG 1.1//EN" "http://www.w3.org/Graphics/SVG/1.1/DTD/svg11.dtd">
<!-- Creator: CorelDRAW -->
<svg xmlns="http://www.w3.org/2000/svg" xml:space="preserve" width="50.75mm" height="50.75mm" version="1.1" style="shape-rendering:geometricPrecision; text-rendering:geometricPrecision; image-rendering:optimizeQuality; fill-rule:evenodd; clip-rule:evenodd"
viewBox="0 0 793.13 793.13"
 xmlns:xlink="http://www.w3.org/1999/xlink"
 xmlns:xodm="http://www.corel.com/coreldraw/odm/2003">
 <defs>
  <style type="text/css">
   <![CDATA[
    .str0 {stroke:#EF7F1A;stroke-width:11.72;stroke-miterlimit:22.9256}
    .fil0 {fill:#FEFEFE}
    .fil1 {fill:#EF7F1A}
   ]]>
  </style>
 </defs>
 <g id="Слой_x0020_1">
  <metadata id="CorelCorpID_0Corel-Layer"/>
  <g id="_1703958408672">
   <circle class="fil0 str0" cx="396.57" cy="396.57" r="390.71"/>
   <path class="fil1" d="M155.96 565.39l477.87 0 0 23.79 -477.87 0 0 -23.79zm-14.87 -179.45l0 -26.65c0.85,-4.97 2.99,-8.05 7.93,-8.05 12.73,0 2.58,31.47 11.88,51.57 2.68,5.8 9.18,13.6 14.28,17.44 6.23,4.7 12.9,7.33 21.42,9.32 0,-5.94 0.38,-13.15 0.08,-18.91 -0.24,-4.37 -0.26,-3.71 -2.73,-6.19 -5.1,-5.09 -21.14,-18.22 -21.14,-24.47 0,-4.26 2.58,-7.93 7.93,-7.93 4.76,0 11.92,10.25 15.87,12.89l0.03 -35.72c0.07,-5.97 0.87,-6.42 -2.18,-9.71 -4.7,-5.08 -21.64,-18.37 -21.64,-24.95 0,-3.17 1.99,-7.93 5.94,-7.93 9.81,0 10.06,9.82 17.85,11.9 0,-9.64 -2.58,-20.81 6.94,-20.81 11.63,0 7.93,15.24 7.93,24.78 0,9.91 0,19.82 0,29.74 2.93,-1.95 8.5,-9.91 11.9,-9.91 6.53,0 13.68,5.53 5.38,14.3 -0.2,0.21 -0.78,0.8 -0.98,1 -1.57,1.69 -1.25,1.56 -2.78,3.17l-2.01 1.96c-4.15,4.22 -6.08,7.43 -11.51,10.3l0 56.51c10.55,-0.88 22.18,-8.49 28.03,-14.6 5.44,-5.66 12.62,-18.37 12.62,-29.02l0 -88.23c0,-30.39 -43.46,-58.9 -75.95,-34.31 -7.22,5.46 -12.83,12.33 -16.42,21.26 -7.33,18.21 1.02,44.68 -8.57,48.03 -6.5,2.26 -9.13,-1.87 -10.1,-8.36l0 -25.63c0,-28.64 28.65,-59.48 57.5,-59.48 23.67,0 36.46,4.2 51.81,19.56 9.05,9.05 17.58,25.11 17.58,42.9l0 81.3c0,24.46 -14.49,45.18 -35.34,55.87 -8.3,4.26 -21.17,4.96 -21.17,8.57l0 102.11 53.54 0c-0.81,-3.01 -1.8,-3.17 -3.68,-6.24 -1.64,-2.68 -1.74,-2.91 -3.01,-5.91 -9.56,-22.63 3.26,-51.21 25.87,-58.88 5.53,-1.88 11.67,-3.15 18.46,-3.36 3.84,-0.11 8.28,0.31 12,0.11 4.87,-0.26 4.47,-0.95 7.15,-3.76 4,-4.21 31.32,-32.99 34.42,-32.99 5.18,0 11.55,1.79 9.32,9.24 -1.68,5.58 -30.97,32.62 -36.81,38.61 -3.38,3.47 -3.65,4.64 -10.12,4.76 -4.89,0.08 -10.04,-0.05 -14.95,-0.08 -45.44,-0.28 -41.09,58.51 -4.94,58.51l47.59 0c3.37,0 13.8,-12.32 16.6,-15.12l62.46 -62.45c7.7,-7.54 5.2,-8.11 5.2,-25.53 0,-20.49 0,-40.98 0,-61.47 -11.54,7.73 -40.5,44.62 -48.58,44.62 -5.37,0 -7.93,-3.66 -7.93,-8.93 0,-2.93 24.73,-26.22 28.51,-29.99 32.82,-32.82 28.01,-19.2 28.01,-56.26 -7.07,0 -30.74,3.4 -30.74,-7.93 0,-5.76 18.87,-20 24.04,-24.54l64.96 -58.98c1.85,-1.89 3.03,-3.25 5.05,-4.86 3.1,-2.47 13.46,-10.49 14.55,-13.21 1.74,-4.33 0.55,-63.93 0.44,-74.91 -0.07,-7.07 0.03,-11.87 6.96,-11.87l80.31 0c4.21,0 7.08,2.28 7.6,6.28 0.67,5.12 -11.74,22.24 -14.54,26.44 3.81,5.69 25.2,32.72 6.94,32.72l-72.37 0c0,23.32 -2.93,18.13 6.71,27l55.49 50.59c2.69,2.59 4.27,3.22 6.98,5.91l27.99 25.55c2.78,2.13 11.9,9.83 11.9,13.88 0,11.33 -23.67,7.93 -30.74,7.93l0 61.47c0,11.04 -15.86,9.79 -15.86,-0.99l0 -60.48 -12.89 0 0 215.13 12.89 0 0 -116.99c0,-12.78 15.86,-13.29 15.86,-1.98l0 118.97 38.66 0c4.8,0 7.93,3.14 7.93,7.93l0 39.66c0,4.62 -2.31,6.94 -6.94,6.94l-493.72 0c-4.63,0 -6.94,-2.31 -6.94,-6.94l0 -39.66c0,-4.79 3.13,-7.93 7.93,-7.93l47.59 0 0 -102.11c0,-5.8 -16.88,-0.56 -37.44,-21.06 -8.43,-8.41 -18.08,-24.04 -18.08,-40.42zm334.11 82.29l82.29 0 0 81.3 -82.29 0 0 -81.3zm-28.75 -133.84l12.89 0 0 215.13 -12.89 0 0 -215.13zm-16.1 154.41l0.24 60.72 -60.48 0 60.23 -60.72zm44.86 -115.75l82.29 0 0 80.3 -82.29 0 0 -80.3zm0 -45.6c0,-22.25 82.29,-22.25 82.29,0l0 29.75 -82.29 0 0 -29.75zm-13.88 -8.93l-32.72 0 37.82 -34.55c2.22,-1.77 3.44,-3.34 5.53,-5.37 2.32,-2.24 3.19,-2.44 5.47,-4.45 5.8,-5.1 35.41,-33.87 39.42,-34.94 2.32,1.55 3.13,2.66 5.19,4.72l38.69 34.67c7.88,7.95 40.64,35.85 43.36,39.92l-32.72 0c-9.4,-17.75 -35.95,-23.38 -54.56,-23.83 -8.95,-0.22 -25.34,3.01 -33.55,6.11 -10.1,3.81 -17.01,8.4 -21.93,17.71zm111.03 -147.72c0,2.88 8.21,14.61 9.91,17.84l-58.49 0 0 -35.69 58.49 0c-1.71,2.55 -9.91,15.06 -9.91,17.85z"/>
   <path class="fil1" d="M515.84 401.81c13.14,0 17.84,21.81 -0.99,21.81 -13.35,0 -11.61,-21.81 0.99,-21.81zm-25.77 8.92c0,38.45 52.55,38.42 52.55,0 0,-11.51 -12.29,-23.79 -23.79,-23.79l-4.96 0c-11.51,0 -23.79,12.29 -23.79,23.79z"/>
  </g>
 </g>
</svg>
