<?xml version="1.0" encoding="UTF-8"?>
<!DOCTYPE svg PUBLIC "-//W3C//DTD SVG 1.1//EN" "http://www.w3.org/Graphics/SVG/1.1/DTD/svg11.dtd">
<!-- Creator: CorelDRAW -->
<svg xmlns="http://www.w3.org/2000/svg" xml:space="preserve" width="50.75mm" height="50.75mm" version="1.1" style="shape-rendering:geometricPrecision; text-rendering:geometricPrecision; image-rendering:optimizeQuality; fill-rule:evenodd; clip-rule:evenodd"
viewBox="0 0 3560.09 3560.09"
 xmlns:xlink="http://www.w3.org/1999/xlink"
 xmlns:xodm="http://www.corel.com/coreldraw/odm/2003">
 <defs>
  <style type="text/css">
   <![CDATA[
    .str0 {stroke:#EF7F1A;stroke-width:52.61;stroke-miterlimit:22.9256}
    .fil0 {fill:#FEFEFE}
    .fil1 {fill:#EF7F1A}
   ]]>
  </style>
 </defs>
 <g id="Слой_x0020_1">
  <metadata id="CorelCorpID_0Corel-Layer"/>
  <g id="_1703976243456">
   <circle class="fil0 str0" cx="1780.05" cy="1780.05" r="1753.74"/>
   <path class="fil1" d="M2251.49 2420.37l89.01 -3.34 4.17 239.42 -75.02 6.62c-36.08,-69.15 -24.96,-155.07 -18.16,-242.7zm-391.14 0l89.39 -3.34 3.83 239.42 -75.02 6.62c-36.12,-69.15 -24.98,-155.07 -18.2,-242.7zm215.82 -493.09c581.41,0 452.38,-49.42 562.24,171.1 36.12,72.52 81.57,144.17 93.61,215.82l-875.85 4.07c17.47,-76.8 54.78,-133.91 89.61,-203.6 84.39,-168.74 52.54,-157.89 130.39,-187.39zm97.78 -488.93c321.02,0 271.05,-19.17 319.17,71.97l141.11 314.99 -680.28 4.04c21.82,-95.91 128.19,-356.17 220,-391zm122.21 -444.2c62.64,51.78 177.71,274.03 191.4,342.25l-380.84 3.93c11.79,-67.41 134.63,-300.83 189.45,-346.17zm-342.21 395.31c30.06,78.82 -25.44,6.54 53.06,73.36 -67.05,110.48 -187.45,320.95 -201.83,442.12l106.59 37.02 -129.45 250.9c-139.79,6.26 -153.6,10.13 -176.92,-185.97 -134.78,-77.94 -101.86,-39.08 -138.99,-154.78 189.55,-332.37 3.23,-254.77 116.89,-491.01 41.2,-85.67 19.94,-93.64 59.12,-185.34 77.67,-56.65 62.74,-12.42 146.85,-97.61 63.13,-63.92 57.91,-59.71 138.12,-106.35 64.76,16.85 109.76,23.95 166.93,81.71 4.31,130.64 -105.55,192.09 -140.38,335.95zm220 -435.82c-301.5,-182.96 -314.06,-38.98 -537.75,93.64 -150.65,89.3 -89.71,142.33 -141.56,249.55 -81.36,168.28 -54.04,167.31 -54.04,361.55l-82.26 140.62c8.56,202.5 13.36,174.55 149.29,281.22 20.63,143.05 59.02,191.85 197.69,242.37 23.56,228.13 52.54,-105.13 53.66,431.64l288.55 3.87 4.97 -337.73 92.81 -3.34 4.97 337.2 289.49 3.87 3.86 -337.73 435.05 -4.83c7.17,-130.6 -125.9,-349 -195.57,-463.84l106.31 -38.06c-16.63,-129.87 -137.04,-340.34 -204.1,-450.82 112.61,-90.93 36.16,-103.39 -101.72,-383.04 -221.39,-449.08 -208.65,-255 -309.67,-126.14z"/>
   <path class="fil1" d="M879.12 2420.41l488.12 -4.04 -0.83 93.4 -463.63 4 -23.66 -93.36zm-98.55 44.64l0.59 289.18 74.81 6.61c36.3,-66.11 20.08,-59.16 26.55,-144.89l460.29 -4.01c26.72,89.74 10.51,82.79 46.77,148.56l71.41 -4.25c7.11,-474.61 -2.22,-283.54 71.58,-346.62 28.36,-24.22 33.34,39.29 26.07,-87.03l-871.67 -4.08c-8.59,173.3 45.3,32.54 93.61,146.54z"/>
   <path class="fil1" d="M784.74 2216.42l89.41 3.38 4 -732.76c-0.48,-103.81 19.56,-162.79 20.46,-240.04l-138.29 -3.58 20.25 463.86c0,168.67 -8.73,342.59 4.17,509.14z"/>
   <polygon class="fil1" points="681.12,1086.02 974.02,1095.48 832.95,941.78 "/>
  </g>
 </g>
</svg>
