<?xml version="1.0" encoding="UTF-8"?>
<!DOCTYPE svg PUBLIC "-//W3C//DTD SVG 1.1//EN" "http://www.w3.org/Graphics/SVG/1.1/DTD/svg11.dtd">
<!-- Creator: CorelDRAW -->
<svg xmlns="http://www.w3.org/2000/svg" xml:space="preserve" width="219.621mm" height="158.075mm" version="1.1" style="shape-rendering:geometricPrecision; text-rendering:geometricPrecision; image-rendering:optimizeQuality; fill-rule:evenodd; clip-rule:evenodd"
viewBox="0 0 15922.81 11460.61"
 xmlns:xlink="http://www.w3.org/1999/xlink"
 xmlns:xodm="http://www.corel.com/coreldraw/odm/2003">
 <defs>
  <style type="text/css">
   <![CDATA[
    .str0 {stroke:red;stroke-width:30.5;stroke-miterlimit:22.9256}
    .str1 {stroke:red;stroke-width:30.5;stroke-miterlimit:22.9256}
    .fil1 {fill:#FEFEFE}
    .fil0 {fill:green}
   ]]>
  </style>
   <clipPath id="id0">
    <path class="str2"  d="M515.64 11453.36l14894.39 -41.91c278.72,-0.8 505.53,-228.23 505.53,-506.96l0 -8411.64c0,-673.91 -549.73,-1223.71 -1223.73,-1223.71l-5581.01 0c-123.34,0 -234.47,-37.95 -318.3,-128.33l-852.77 -919.63c-139.74,-150.69 -324.94,-213.91 -530.51,-213.91l-6895.03 0c-279.22,0 -506.95,227.73 -506.95,506.96l0 10432.2c0,139.85 49.96,260.22 149,358.98 99.01,98.75 219.51,148.37 359.39,147.98z"/>
   </clipPath>
 </defs>
 <g id="Слой_x0020_1">
  <metadata id="CorelCorpID_0Corel-Layer"/>
  <path class="fil0" d="M515.64 11453.36l14894.39 -41.91c278.72,-0.8 505.53,-228.23 505.53,-506.96l0 -8411.64c0,-673.91 -549.73,-1223.71 -1223.73,-1223.71l-5581.01 0c-123.34,0 -234.47,-37.95 -318.3,-128.33l-852.77 -919.63c-139.74,-150.69 -324.94,-213.91 -530.51,-213.91l-6895.03 0c-279.22,0 -506.95,227.73 -506.95,506.96l0 10432.2c0,139.85 49.96,260.22 149,358.98 99.01,98.75 219.51,148.37 359.39,147.98z"/>
  <g style="clip-path:url(#id0)">
   <g id="_2544220501680">
    <rect class="fil1 str0" x="-3672.45" y="3283.68" width="478.07" height="130.38"/>
   </g>
  </g>
  <path class="fil1 str1" d="M515.64 11453.36l14894.39 -41.91c278.72,-0.8 505.53,-228.23 505.53,-506.96l0 -8411.64c0,-673.91 -549.73,-1223.71 -1223.73,-1223.71l-5581.01 0c-123.34,0 -234.47,-37.95 -318.3,-128.33l-852.77 -919.63c-139.74,-150.69 -324.94,-213.91 -530.51,-213.91l-6895.03 0c-279.22,0 -506.95,227.73 -506.95,506.96l0 10432.2c0,139.85 49.96,260.22 149,358.98 99.01,98.75 219.51,148.37 359.39,147.98z"/>
 </g>
</svg>
