<?xml version="1.0" encoding="UTF-8"?>
<!DOCTYPE svg PUBLIC "-//W3C//DTD SVG 1.1//EN" "http://www.w3.org/Graphics/SVG/1.1/DTD/svg11.dtd">
<!-- Creator: CorelDRAW -->
<svg xmlns="http://www.w3.org/2000/svg" xml:space="preserve" width="50.75mm" height="50.75mm" version="1.1" style="shape-rendering:geometricPrecision; text-rendering:geometricPrecision; image-rendering:optimizeQuality; fill-rule:evenodd; clip-rule:evenodd"
viewBox="0 0 1344.88 1344.88"
 xmlns:xlink="http://www.w3.org/1999/xlink"
 xmlns:xodm="http://www.corel.com/coreldraw/odm/2003">
 <defs>
  <style type="text/css">
   <![CDATA[
    .str0 {stroke:#EF7F1A;stroke-width:19.88;stroke-miterlimit:22.9256}
    .fil0 {fill:#FEFEFE}
    .fil1 {fill:#EF7F1A}
   ]]>
  </style>
 </defs>
 <g id="Слой_x0020_1">
  <metadata id="CorelCorpID_0Corel-Layer"/>
  <g id="_1744190121584">
   <circle class="fil0 str0" cx="672.44" cy="672.44" r="662.5"/>
   <path class="fil1" d="M971.18 555.54l25.98 0 0 25.98 -25.98 0 0 -25.98zm-51.96 0l25.98 0 0 25.98 -25.98 0 0 -25.98zm-103.91 0l25.98 0 0 25.98 -25.98 0 0 -25.98zm-337.71 0l51.96 0 0 25.98 -51.96 0 0 -25.98zm-103.91 0l25.97 0 0 25.98 -25.97 0 0 -25.98zm597.49 -51.96l25.98 0 0 25.98 -25.98 0 0 -25.98zm-51.96 0l25.98 0 0 25.98 -25.98 0 0 -25.98zm-103.91 0l25.98 0 0 25.98 -25.98 0 0 -25.98zm-337.71 0l51.96 0 0 25.98 -51.96 0 0 -25.98zm-103.91 0l25.97 0 0 25.98 -25.97 0 0 -25.98zm441.62 -51.96l25.98 0 0 25.99 -25.98 0 0 -25.99zm-441.62 0l25.97 0 0 25.99 -25.97 0 0 -25.99zm493.58 -51.95l25.98 0 0 25.98 -25.98 0 0 -25.98zm-51.96 0l25.98 0 0 25.98 -25.98 0 0 -25.98zm51.96 -51.96l25.98 0 0 25.98 -25.98 0 0 -25.98zm-51.96 0l25.98 0 0 25.98 -25.98 0 0 -25.98zm-207.82 259.78l-51.96 0 0 -129.88 -103.91 0 0 129.88 -25.99 0 0 -155.87 69.81 0c0,-26.23 6.5,-50.79 6.5,-77.93 -25.62,0 -12.02,-1.57 -25.72,18.11 -30.63,44.03 -94.98,44.72 -126.48,0.96 -13.1,-18.22 -0.59,-19.07 -26.39,-19.07 0,20.58 3.6,38.63 4.93,58.4 2.97,44.02 11.56,100.94 14.61,146.12 0.59,8.63 3.01,21 3.19,29.28l-76.31 0 0 129.9 337.72 0 0 337.71 129.88 0 0 -337.71 337.71 0 0 -129.9 -51.95 0 0 -129.88 -129.9 0 0 129.88 -25.98 0 0 -155.87 51.95 0 0 -129.88 -129.88 0 0 285.75 -51.96 0 0 -337.71 -129.88 0 0 337.71z"/>
   <polygon class="fil1" points="841.29,1049.13 763.36,1049.13 763.36,1075.1 1075.09,1075.1 1075.09,1049.13 984.18,1049.13 984.18,997.17 958.19,997.17 958.19,1049.13 867.28,1049.13 867.28,945.21 841.29,945.21 "/>
   <path class="fil1" d="M329.85 867.27l217.56 0c-23.9,-20.77 -62.89,-48.85 -89.08,-70.04 -11.12,-9 -9.68,-7.89 -24.57,-7.89 -7.5,0 -21.09,13.06 -27.37,18.09 -8.66,6.92 -16.96,12.63 -25.7,19.76 -8.75,7.15 -16.43,13.03 -25.57,19.9l-25.26 20.19z"/>
   <polygon class="fil1" points="347.71,997.17 373.69,997.17 373.69,919.23 503.58,919.23 503.58,997.17 529.56,997.17 529.56,893.26 347.71,893.26 "/>
   <path class="fil1" d="M912.74 971.19l116.9 0c-2.27,-9.7 -9.46,-23.54 -13.45,-33.63 -4.56,-11.52 -9.55,-22.46 -13.94,-33.16 -33.46,-81.72 -27.58,-86.7 -62.15,-0.01 -4.96,12.45 -25.33,58.06 -27.36,66.8z"/>
   <path class="fil1" d="M795.84 919.23l116.9 0 -41.14 -100.11c-20.15,-44.94 -16.65,-44.14 -48.37,33.33l-27.39 66.78z"/>
   <path class="fil1" d="M373.69 334.72l25.97 0 0 -25.97 25.98 0 0 25.97 25.99 0 0 25.99 -25.99 0 0 25.98 -25.98 0 0 -25.98 -25.97 0 0 -25.99zm-12.99 9.75c0,33.71 23.84,55.21 47.09,55.21 16.86,0 28.65,-1.73 41.88,-14.96 29.24,-29.25 16.11,-88.96 -40.25,-88.96 -25.06,0 -48.71,23.65 -48.71,48.71z"/>
   <polygon class="fil1" points="399.67,997.17 477.6,997.17 477.6,945.21 399.67,945.21 "/>
  </g>
 </g>
</svg>
